<?xml version="1.0" encoding="UTF-8" standalone="no"?>
<!DOCTYPE svg PUBLIC "-//W3C//DTD SVG 1.1//EN" "http://www.w3.org/Graphics/SVG/1.1/DTD/svg11.dtd">
<svg width="100%" height="100%" viewBox="0 0 329 336" version="1.1" xmlns="http://www.w3.org/2000/svg" xmlns:xlink="http://www.w3.org/1999/xlink" xml:space="preserve" xmlns:serif="http://www.serif.com/" style="fill-rule:evenodd;clip-rule:evenodd;stroke-linejoin:round;stroke-miterlimit:1.41421;">
    <g id="Layer-3" serif:id="Layer 3">
        <path d="M2.685,57.744C9.543,65.461 27.834,85.041 54.159,105.704L29.67,199.5L112.684,143.38C120.531,147.347 128.672,151.027 137.07,154.302L140.703,252.991L206.992,171.709C217.286,173.058 227.184,173.862 236.58,174.253L270.23,264.458L306.256,169.864C316.478,168.087 323.598,166.276 326.852,165.38L326.852,282.073C326.852,310.793 303.579,334.064 274.839,334.064L54.717,334.064C25.977,334.064 2.685,310.794 2.685,282.073L2.685,57.744ZM4.381,41.058C10.232,18.726 30.548,2.255 54.717,2.255L274.839,2.255C303.579,2.255 326.852,25.547 326.852,54.286L326.852,148.797C314.596,152.913 247.459,172.902 165.195,147.916C78.877,121.697 16.659,54.978 4.381,41.058Z" style="fill:rgb(0,0,12);"/>
    </g>
</svg>
