<?xml version="1.0" encoding="utf-8"?>
<!-- Generator: Adobe Illustrator 16.0.3, SVG Export Plug-In . SVG Version: 6.00 Build 0)  -->
<!DOCTYPE svg PUBLIC "-//W3C//DTD SVG 1.1//EN" "http://www.w3.org/Graphics/SVG/1.1/DTD/svg11.dtd">
<svg version="1.1" id="Layer_1" xmlns="http://www.w3.org/2000/svg" xmlns:xlink="http://www.w3.org/1999/xlink" x="0px" y="0px"
	 width="8.373px" height="8.551px" viewBox="0 0 8.373 8.551" enable-background="new 0 0 8.373 8.551" xml:space="preserve">
<path d="M0,7.107C0,7.905,0.333,8.55,0.743,8.55h5.795c0.411,0,0.744-0.646,0.744-1.442H0z M1.829,6.738h3.816
	c0.467,0,0.846-0.553,0.846-1.233c0-0.081,0.002-0.389,0.002-0.535h0.175c0.94,0,1.706-1.112,1.706-2.484
	c0-1.371-0.768-2.484-1.711-2.484L0.983,0v5.505C0.983,6.186,1.36,6.738,1.829,6.738z M6.492,0.986h0.175
	c0.568,0,1.029,0.671,1.029,1.499c0,0.829-0.461,1.5-1.029,1.5c-0.074,0-0.175,0.003-0.175,0.003V0.986z M3.794,1.685
	c0.49,0,0.9,0.417,0.96,1.164H4.281C4.25,2.527,4.038,2.282,3.794,2.282c-0.439,0-0.604,0.545-0.604,1.111
	c0,0.54,0.165,1.085,0.604,1.085c0.299,0,0.468-0.301,0.505-0.726h0.474C4.724,4.56,4.34,5.077,3.794,5.077
	c-0.688,0-1.093-0.749-1.093-1.684C2.701,2.432,3.106,1.685,3.794,1.685z"/>
</svg>
