<?xml version="1.0" encoding="utf-8"?>
<!-- Generator: Adobe Illustrator 16.0.3, SVG Export Plug-In . SVG Version: 6.00 Build 0)  -->
<!DOCTYPE svg PUBLIC "-//W3C//DTD SVG 1.1//EN" "http://www.w3.org/Graphics/SVG/1.1/DTD/svg11.dtd">
<svg version="1.1" id="Layer_1" xmlns="http://www.w3.org/2000/svg" xmlns:xlink="http://www.w3.org/1999/xlink" x="0px" y="0px"
	 width="28.91px" height="28.602px" viewBox="0 0 28.91 28.602" enable-background="new 0 0 28.91 28.602" xml:space="preserve">
<g>
	<g>
		<g>
			<g>
				<path d="M28.022,9.098c-0.457-0.557-4.733-5.75-4.733-5.75V0.005l-6.53,7.864H6.15L1.688,7.868C0.756,7.868,0,8.785,0,9.913
					c0,1.132,0.756,2.05,1.688,2.05h2.509l0.032,14.142c0,1.383,0.913,2.496,2.045,2.496c1.136,0,2.054-1.113,2.054-2.496v-6.608
					l9.385-0.021l0.005,6.631c0,1.383,0.919,2.496,2.047,2.496c0.004,0,0.004-0.008,0.004-0.008s0,0.008,0.01,0.008
					c0.014,0,0.021-0.008,0.033-0.008c0.051-0.008,0.098-0.008,0.146-0.008c0.03-0.002,0.071-0.01,0.11-0.02
					c0.021,0,0.043,0,0.063-0.021c0.05,0,0.085-0.011,0.136-0.023c0.012,0,0.018-0.002,0.028-0.013
					c0.874-0.271,1.534-1.25,1.534-2.406l-0.014-13.093L9.107-0.001H10.8l11.67,12.158l5.096-0.018c0.932,0,1.346-0.389,1.346-1.521
					C28.91,10.025,28.479,9.656,28.022,9.098z"/>
			</g>
		</g>
	</g>
</g>
<path d="M6.738,6.872"/>
</svg>
