<?xml version="1.0" encoding="utf-8"?>
<!-- Generator: Adobe Illustrator 16.0.3, SVG Export Plug-In . SVG Version: 6.00 Build 0)  -->
<!DOCTYPE svg PUBLIC "-//W3C//DTD SVG 1.1//EN" "http://www.w3.org/Graphics/SVG/1.1/DTD/svg11.dtd">
<svg version="1.1" id="Layer_1" xmlns="http://www.w3.org/2000/svg" xmlns:xlink="http://www.w3.org/1999/xlink" x="0px" y="0px"
	 width="90.666px" height="142.542px" viewBox="0 0 90.666 142.542" enable-background="new 0 0 90.666 142.542"
	 xml:space="preserve">
<path fill="#5DA73C" d="M86.135,4.088H59.586L46.051-1.125c-0.463-0.178-0.974-0.18-1.437,0L31.076,4.088H4.533
	C2.029,4.088,0,6.119,0,8.622v53.267c0,2.504,2.029,4.533,4.533,4.533h25.777l13.055,73.213c0.17,0.957,0.997,1.648,1.969,1.648
	c0.969,0,1.797-0.691,1.967-1.648l13.056-73.213h25.776c2.504,0,4.533-2.029,4.533-4.533V8.622
	C90.668,6.119,88.637,4.088,86.135,4.088"/>
</svg>
