<?xml version="1.0" encoding="utf-8"?>
<!-- Generator: Adobe Illustrator 16.0.3, SVG Export Plug-In . SVG Version: 6.00 Build 0)  -->
<!DOCTYPE svg PUBLIC "-//W3C//DTD SVG 1.1//EN" "http://www.w3.org/Graphics/SVG/1.1/DTD/svg11.dtd">
<svg version="1.1" id="Layer_1" xmlns="http://www.w3.org/2000/svg" xmlns:xlink="http://www.w3.org/1999/xlink" x="0px" y="0px"
	 width="16.731px" height="17.126px" viewBox="0 0 16.731 17.126" enable-background="new 0 0 16.731 17.126" xml:space="preserve">
<path d="M14.047,0H2.686C1.202,0,0,1.202,0,2.685v11.757c0,1.482,1.202,2.684,2.686,2.684h11.361c1.483,0,2.685-1.201,2.685-2.684
	V2.685C16.731,1.202,15.53,0,14.047,0z M5.167,11.507H4.015L3.026,9.05C2.815,8.503,2.518,7.687,2.374,7.102h-0.02
	c0.029,0.652,0.077,1.65,0.077,2.946v1.459H1.328V5.038h1.152l0.998,2.534c0.192,0.5,0.509,1.334,0.691,1.891h0.02
	C4.149,8.781,4.063,7.658,4.063,6.468v-1.43h1.104V11.507z M9.103,11.507H6.176V5.038h2.812v1.094H7.433V7.62h1.478v1.046H7.433
	v1.747h1.67V11.507z M14.574,11.507h-1.295l-0.384-2.121c-0.106-0.595-0.202-1.334-0.288-2.121h-0.02
	c-0.115,0.777-0.221,1.497-0.355,2.131L11.8,11.507h-1.247L9.449,5.038h1.305l0.316,2.582c0.087,0.738,0.145,1.478,0.221,2.265
	h0.029c0.086-0.797,0.23-1.497,0.364-2.274l0.461-2.572h1.018l0.432,2.553c0.115,0.729,0.23,1.449,0.308,2.294h0.019
	c0.087-0.845,0.163-1.535,0.25-2.284l0.316-2.563h1.229L14.574,11.507z"/>
</svg>
