<?xml version="1.0" encoding="utf-8"?>
<!-- Generator: Adobe Illustrator 16.0.3, SVG Export Plug-In . SVG Version: 6.00 Build 0)  -->
<!DOCTYPE svg PUBLIC "-//W3C//DTD SVG 1.1//EN" "http://www.w3.org/Graphics/SVG/1.1/DTD/svg11.dtd">
<svg version="1.1" id="Layer_1" xmlns="http://www.w3.org/2000/svg" xmlns:xlink="http://www.w3.org/1999/xlink" x="0px" y="0px"
	 width="9.464px" height="9.758px" viewBox="0 0 9.464 9.758" enable-background="new 0 0 9.464 9.758" xml:space="preserve">
<g>
	<path d="M6.438,9.756c1.67,0,3.025-1.355,3.025-3.025c0-0.484,0-1.768,0-2.03c0-0.276-0.214-0.358-0.396-0.156
		c-0.108,0.119-2.576,2.604-3.812,3.95c0-1.082,0-2.568,0-2.938c0-0.07,0.03-0.129,0.119-0.129c1.267,0,2.409-1.364,2.409-2.673
		c0-0.97-0.203-1.675-0.652-2.571C7.073,0.066,7.065,0,6.901,0C6.825,0,6.751,0.033,6.714,0.096C6.596,0.3,5.965,1.391,5.925,1.463
		c-0.049,0.088-0.153,0.097-0.204,0C5.684,1.39,5.048,0.3,4.932,0.096C4.897,0.033,4.825,0,4.746,0C4.669,0,4.596,0.033,4.559,0.096
		C4.442,0.3,3.809,1.39,3.77,1.463c-0.05,0.097-0.154,0.088-0.203,0C3.526,1.391,2.893,0.3,2.778,0.096C2.741,0.033,2.668,0,2.589,0
		C2.426,0,2.417,0.064,2.36,0.183C1.911,1.08,1.707,1.787,1.707,2.754c0,1.31,1.146,2.673,2.411,2.673
		c0.088,0,0.117,0.059,0.117,0.129c0,0.604,0,4.201,0,4.201L6.438,9.756L6.438,9.756z"/>
	<path d="M0,4.701c0,0.264,0.005,1.545,0.005,2.03c0,1.67,1.354,3.025,3.024,3.025c0.242,0,0.447,0,0.447,0V7.707
		c0,0-2.934-3.004-3.078-3.165C0.214,4.34,0,4.422,0,4.701z"/>
</g>
</svg>
