<?xml version="1.0" encoding="utf-8"?>
<!-- Generator: Adobe Illustrator 16.0.3, SVG Export Plug-In . SVG Version: 6.00 Build 0)  -->
<!DOCTYPE svg PUBLIC "-//W3C//DTD SVG 1.1//EN" "http://www.w3.org/Graphics/SVG/1.1/DTD/svg11.dtd">
<svg version="1.1" id="Layer_2" xmlns="http://www.w3.org/2000/svg" xmlns:xlink="http://www.w3.org/1999/xlink" x="0px" y="0px"
	 width="324.167px" height="331.809px" viewBox="0 0 324.167 331.809" enable-background="new 0 0 324.167 331.809"
	 xml:space="preserve">
<path d="M272.154,0H52.032C23.292,0,0,23.291,0,52.031v227.786c0,28.721,23.292,51.992,52.032,51.992h220.122
	c28.74,0,52.013-23.271,52.013-51.992V52.031C324.167,23.291,300.894,0,272.154,0z M167.9,208.526
	c-18.839,11.923-23.092,10.586-30.351,14.343c-1.241,0.643-0.242,33.157-0.242,33.157l50.205,18.832c0,0,3.122,2.246-1.561,2.812
	c-4.683,0.562-125.383,0.012-125.383,0.012s-4.514-1.532,0.163-4.059c6.763-3.654,51.343-15.628,51.863-19.002
	c0.52-3.371,1.56-27.545-1.041-32.041c-2.601-4.499-62.418-18.951-58.586-62.128c4.162-46.898,14.104-100.048,14.104-100.048h120.7
	c0,0,11.802,70.792,12.627,93.059C201.064,171.425,205.201,184.917,167.9,208.526z M265.815,119.381
	c-5.427,3.221-4.75,9.076-4.75,7.727c0-0.051,0-0.061,0-0.019c0,0.009,0,0.01,0,0.019c-0.005,2.87,0.25,150.814,0.25,150.814
	s-2.957,5.67-11.333,5.459c-8.376-0.212-12-5.459-12-5.459s1.845-146.264-0.865-152.226c-3.125-6.875-16.635-7.148-17.094-18.284
	c-0.6-14.56-0.235-34.08-0.233-51.129c0,0-0.057-0.843,0.529-1.686c0.585-0.843,2.146-0.949,2.146-0.949s6.955-0.809,7.476,1.441
	c0.521,2.249,0.532,30.631,1.208,40.458c0,0,1.042,9.25,6.667,9c3.466-0.154,4.667-3.5,4.375-31.083
	c-0.145-13.642-1.563-20,4.875-20c7.751,0,6.092,3.934,6.5,22.125c0.224,9.998,0.021,19.059,1.813,23.458
	c1.073,2.635,3.219,7.803,8.271,3.5c4.5-3.833-0.126-46.408,1.292-47.958c4-4.375,8.692-1.865,9.75,0.25
	c1.875,3.75,1.238,51.875,1.238,51.875S277.19,112.631,265.815,119.381z"/>
</svg>
