<?xml version="1.0" encoding="utf-8"?>
<!-- Generator: Adobe Illustrator 24.3.0, SVG Export Plug-In . SVG Version: 6.00 Build 0)  -->
<svg version="1.1" id="Layer_1" xmlns="http://www.w3.org/2000/svg" xmlns:xlink="http://www.w3.org/1999/xlink" x="0px" y="0px"
	 viewBox="0 0 85 73.7" style="enable-background:new 0 0 85 73.7;" xml:space="preserve">
<path d="M79.4,38.5c-0.8,0.5-1.9,1.4-2.9,2.3c0.8-2.2,1.3-4.6,1.3-7.4l0,0c1.7-1,4-3.9,4.5-7.2c0.6-4-3-11.4-3-11.4
	s-1.8,2.8-2.3,4.8c-0.3,1-0.5,2.7-0.7,4.2c-0.9-2.7-2-5.1-3.1-7.3c0.2-3.2-2.4-7.1-2.7-7.5C67.6,5.2,59,0.4,59,0.4s1,3.2,1.6,5.4
	c0.9,3.7,3.6,6.3,4.1,6.8c0,0,4.8,4.5,7,5.6c1,2,2,4.1,2.7,6.5c-0.5-0.5-1.1-1.1-1.8-1.7c-2.5-2.2-6.9-3.7-6.8-2.9
	c0.1,0.8,1.3,4.1,3,7.2c1.4,2.6,4.9,5.3,7,6.1c0,3.5-1,6.6-2.2,9c0-0.9,0-2.2-0.2-4c-0.3-3.3-2.7-7.3-3.2-6.6s-2.1,4.2-3.1,7.9
	c-0.9,3.3,0,8.3,1.3,9.9c-1.6,2.3-3.3,3.9-5.1,5.1c0.5-0.7,1-1.7,1.6-2.9c1.6-3.1,1.6-7.8,0.8-7.5c-0.9,0.4-4.3,2.7-7.3,5.4
	c-2.3,2.1-4.1,6.1-4.4,8.4c-2.5,0.6-4.8,1.2-7,1.7c-1.5,0.4-2.9,0.7-4.3,1.1c-1.4-0.3-2.8-0.7-4.3-1.1c-2.1-0.5-4.5-1.1-7-1.7
	c-0.3-2.4-2.1-6.3-4.4-8.4c-3-2.7-6.4-5-7.3-5.4c-0.9-0.4-0.8,4.4,0.8,7.5c0.6,1.2,1.2,2.2,1.6,2.9c-1.8-1.2-3.5-2.8-5.1-5.1
	c1.3-1.6,2.2-6.6,1.3-9.9c-1-3.7-2.5-7.2-3.1-7.9c-0.5-0.7-2.9,3.2-3.2,6.6c-0.2,1.8-0.2,3.2-0.2,4c-1.2-2.5-2.2-5.5-2.2-9
	c2.1-0.8,5.6-3.5,7-6.1c1.7-3.1,2.9-6.5,3-7.2s-4.3,0.7-6.8,2.9c-0.7,0.6-1.3,1.2-1.8,1.7c0.7-2.4,1.7-4.5,2.7-6.5
	c2.2-1.1,7-5.6,7-5.6c0.5-0.6,3.2-3.1,4.1-6.8c0.5-2.2,1.6-5.4,1.6-5.4S17.5,5.2,14.6,9c-0.3,0.4-2.9,4.3-2.7,7.5
	c-1.1,2.2-2.3,4.6-3.1,7.3c-0.2-1.5-0.5-3.2-0.7-4.2c-0.5-2-2.3-4.8-2.3-4.8s-3.6,7.4-3,11.4c0.5,3.3,2.7,6.2,4.5,7.2l0,0
	c0,2.7,0.5,5.2,1.3,7.4c-1.1-0.9-2.2-1.8-2.9-2.3c-1.9-1.3-5.4-2.6-5.4-2.6S3,44.2,6.5,47.2c2.6,2.2,6,3.3,8.2,3.3
	c0.1,0.2,0.3,0.3,0.3,0.4c1.5,2.1,3,3.7,4.6,4.9c-1.8-0.3-3.8-0.7-5-0.7C11.9,54.9,8,55.6,8,55.6s7.2,5.9,12.1,6.8
	c4.4,0.8,9-0.6,10.5-2c2.5,0.6,4.8,1.2,7,1.7c0.2,0,0.3,0.1,0.5,0.1c-7,2.1-11.3,4.6-11.2,10.1c0,0.6,0.5,1.1,1.1,1.1l0,0
	c0.6,0,1.1-0.5,1.1-1.1c-0.1-4.8,4.3-6.7,13.4-9c9,2.3,13.4,4.2,13.4,9c0,0.6,0.5,1.1,1.1,1.1l0,0c0.6,0,1.1-0.5,1.1-1.1
	c0.1-5.5-4.2-8.1-11.2-10.1c0.2,0,0.3-0.1,0.5-0.1c2.2-0.5,4.5-1.1,7-1.7c1.5,1.4,6.2,2.8,10.5,2c4.9-0.9,12.1-6.8,12.1-6.8
	s-4-0.7-6.5-0.5c-1.2,0.1-3.2,0.4-5,0.7c1.6-1.2,3.1-2.8,4.6-4.9c0-0.1,0.2-0.2,0.3-0.4c2.2,0,5.7-1.1,8.2-3.3
	c3.5-3,6.2-11.3,6.2-11.3S81.3,37.2,79.4,38.5z M26.2,16.1c4.2,0,5.2-2.1,6.1-4.4H36v35h-5.5V20h-4.2L26.2,16.1L26.2,16.1z
	 M42.1,20.1c0-5.6,3-8.8,8.4-8.8s8.4,3.2,8.4,8.8v18.2c0,5.6-3,8.8-8.4,8.8s-8.4-3.2-8.4-8.8V20.1z M47.6,38.6
	c0,2.5,1.1,3.5,2.9,3.5c1.8,0,2.9-1,2.9-3.5V19.7c0-2.5-1.1-3.5-2.9-3.5c-1.8,0-2.9,0.9-2.9,3.5V38.6z"/>
</svg>
