<?xml version="1.0" encoding="utf-8"?>
<!-- Generator: Adobe Illustrator 24.3.0, SVG Export Plug-In . SVG Version: 6.00 Build 0)  -->
<svg version="1.1" id="Layer_1" xmlns="http://www.w3.org/2000/svg" xmlns:xlink="http://www.w3.org/1999/xlink" x="0px" y="0px"
	 viewBox="0 0 85 73.7" style="enable-background:new 0 0 85 73.7;" xml:space="preserve">
<path d="M84.8,35.9c0,0-2.7,8.3-6.2,11.3c-2.6,2.2-6,3.3-8.2,3.3c-0.1,0.2-0.3,0.3-0.3,0.4c-1.5,2.1-3,3.7-4.6,4.9
	c1.8-0.3,3.8-0.7,5-0.7c2.5-0.2,6.5,0.5,6.5,0.5s-7.2,5.9-12.1,6.8c-4.4,0.8-9-0.6-10.5-2c-2.5,0.6-4.8,1.2-7,1.7
	c-0.2,0-0.3,0.1-0.5,0.1c7,2.1,11.3,4.6,11.2,10.1c0,0.6-0.5,1.1-1.1,1.1c0,0,0,0,0,0c-0.6,0-1.1-0.5-1.1-1.1
	c0.1-4.8-4.3-6.7-13.4-9c-9,2.3-13.4,4.2-13.4,9c0,0.6-0.5,1.1-1.1,1.1c0,0,0,0,0,0c-0.6,0-1.1-0.5-1.1-1.1
	c-0.1-5.5,4.2-8.1,11.2-10.1c-0.2,0-0.3-0.1-0.5-0.1c-2.2-0.5-4.5-1.1-7-1.7c-1.5,1.4-6.2,2.8-10.5,2C15.2,61.6,8,55.6,8,55.6
	s4-0.7,6.5-0.5c1.2,0.1,3.2,0.4,5,0.7c-1.6-1.2-3.1-2.8-4.6-4.9c0-0.1-0.2-0.2-0.3-0.4c-2.2,0-5.7-1.1-8.2-3.3
	c-3.5-3-6.2-11.3-6.2-11.3s3.5,1.3,5.4,2.6c0.8,0.5,1.9,1.4,2.9,2.3c-0.8-2.2-1.3-4.6-1.3-7.4c0,0,0,0,0,0c-1.7-1-4-3.9-4.5-7.2
	c-0.6-4,3-11.4,3-11.4s1.8,2.8,2.3,4.8c0.3,1,0.5,2.7,0.7,4.2c0.9-2.7,2-5.1,3.1-7.3c-0.2-3.2,2.4-7.1,2.7-7.5
	c2.9-3.8,11.5-8.6,11.5-8.6s-1,3.2-1.6,5.4c-0.9,3.7-3.6,6.3-4.1,6.8c0,0-4.8,4.5-7,5.6c-1,2-2,4.1-2.7,6.5c0.5-0.5,1.1-1.1,1.8-1.7
	c2.5-2.2,6.9-3.7,6.8-2.9s-1.3,4.1-3,7.2c-1.4,2.6-4.9,5.3-7,6.1c0,3.5,1,6.6,2.2,9c0-0.9,0-2.2,0.2-4c0.3-3.3,2.7-7.3,3.2-6.6
	c0.5,0.7,2.1,4.2,3.1,7.9c0.9,3.3,0,8.3-1.3,9.9c1.6,2.3,3.3,3.9,5.1,5.1c-0.5-0.7-1-1.7-1.6-2.9c-1.6-3.1-1.6-7.8-0.8-7.5
	c0.9,0.4,4.3,2.7,7.3,5.4c2.3,2.1,4.1,6.1,4.4,8.4c2.5,0.6,4.8,1.2,7,1.7c1.5,0.4,2.9,0.7,4.3,1.1c1.4-0.3,2.8-0.7,4.3-1.1
	c2.1-0.5,4.5-1.1,7-1.7c0.3-2.4,2.1-6.3,4.4-8.4c3-2.7,6.4-5,7.3-5.4c0.9-0.4,0.8,4.4-0.8,7.5c-0.6,1.2-1.2,2.2-1.6,2.9
	c1.8-1.2,3.5-2.8,5.1-5.1c-1.3-1.6-2.2-6.6-1.3-9.9c1-3.7,2.5-7.2,3.1-7.9s2.9,3.2,3.2,6.6c0.2,1.8,0.2,3.2,0.2,4
	c1.2-2.5,2.2-5.5,2.2-9c-2.1-0.8-5.6-3.5-7-6.1c-1.7-3.1-2.9-6.5-3-7.2c-0.1-0.8,4.3,0.7,6.8,2.9c0.7,0.6,1.3,1.2,1.8,1.7
	c-0.7-2.4-1.7-4.5-2.7-6.5c-2.2-1.1-7-5.6-7-5.6c-0.5-0.6-3.2-3.1-4.1-6.8c-0.5-2.2-1.6-5.4-1.6-5.4S67.4,5.2,70.3,9
	c0.3,0.4,2.9,4.3,2.7,7.5c1.1,2.2,2.3,4.6,3.1,7.3c0.2-1.5,0.5-3.2,0.7-4.2c0.5-2,2.3-4.8,2.3-4.8s3.6,7.4,3,11.4
	c-0.5,3.3-2.7,6.2-4.5,7.2c0,0,0,0,0,0c0,2.7-0.5,5.2-1.3,7.4c1.1-0.9,2.2-1.8,2.9-2.3C81.3,37.2,84.8,35.9,84.8,35.9z M25.1,11.6v5
	h11l-8.1,30h5.5l8.1-30.2v-4.8H25.1z M43.1,35.3v2.9c0,5.6,2.8,8.8,8.2,8.8s8.2-3.2,8.2-8.8v-7.8c0-5.2-2.1-8-6.1-8
	c-2.2,0-3.8,0.9-4.8,2.6l0.5-8.4h9.6v-5H44.1l-1,20.3h5.2v-1.1c0-2.5,1.1-3.5,2.9-3.5s2.9,1,2.9,3.5v7.7c0,2.5-1.1,3.4-2.9,3.4
	s-2.9-0.9-2.9-3.4v-3.3H43.1z"/>
<g>
</g>
<g>
</g>
<g>
</g>
<g>
</g>
<g>
</g>
<g>
</g>
</svg>
