<?xml version="1.0" encoding="utf-8"?>
<!-- Generator: Adobe Illustrator 16.0.3, SVG Export Plug-In . SVG Version: 6.00 Build 0)  -->
<!DOCTYPE svg PUBLIC "-//W3C//DTD SVG 1.1//EN" "http://www.w3.org/Graphics/SVG/1.1/DTD/svg11.dtd">
<svg version="1.1" id="Layer_1" xmlns="http://www.w3.org/2000/svg" xmlns:xlink="http://www.w3.org/1999/xlink" x="0px" y="0px"
	 width="10.879px" height="12.625px" viewBox="0 0 10.879 12.625" enable-background="new 0 0 10.879 12.625" xml:space="preserve">
<path d="M10.551,4.639c-0.162-0.206-0.43-0.309-0.568-0.513C9.934,4.055,9.924,3.933,9.867,3.841
	c-0.059-0.096-0.143-0.144-0.17-0.229C9.623,3.393,9.633,3.265,9.584,3.078c-0.02-0.08-0.074-0.189-0.117-0.276
	C9.336,2.543,9.336,2.428,9.053,2.307c0.141-0.039,0.236-0.133,0.414-0.122C9.621,2.197,9.686,2.29,9.781,2.301
	C9.986,1.844,9.404,1.746,9.07,1.873C8.852,1.955,8.77,2.158,8.611,2.185c-0.275-0.16-0.488-0.384-0.684-0.626
	C7.867,1.01,7.686,0.778,7.371,0.569c0.207-0.089,0.32-0.206,0.355-0.465C7.393-0.197,7.064,0.236,6.902,0.419
	c-0.22,0.246-0.41,0.547-0.543,0.826C6.052,1.894,5.968,2.728,5.704,3.327C5.745,2.698,5.37,2.164,5.202,2.088
	C5.105,2.044,4.997,2.021,4.906,1.986C5.02,1.874,5.352,1.936,5.39,1.901c0.16-0.365-0.375-0.354-0.57-0.285
	C4.079,1.879,3.936,4.42,3.936,8.404C3.397,7.269,2.578,6.416,1.169,6.15c0.149,0.17,0.303,0.26,0.458,0.371
	c1.142,0.833,1.906,2.028,2.452,3.45C3.498,9.205,2.364,8.537,1.113,8.46C0.67,8.431,0,8.404,0,8.775
	c0.002,0.32,0.793,0.563,0.998,0.654c1.232,0.535,2.232,1.08,2.91,2.055c-0.789-0.576-2.712-0.811-3.394,0.027
	c1.097-0.141,2.322-0.119,3.079,0.342c0.314,0.191,0.906,0.789,1.198,0.771c0.147-0.008,0.355-0.207,0.541-0.344
	c0.583-0.43,1.011-0.738,1.94-0.797c0.596-0.037,1.071,0.098,1.713,0.086c-0.509-0.719-2.22-0.65-2.967-0.287
	c0.34-0.401,0.682-0.771,1.17-1.057c0.45-0.26,1.108-0.383,1.34-0.883C8.004,9.109,7.385,9.392,6.932,9.601
	c-0.5,0.229-0.949,0.535-1.255,0.797C5.941,9.843,6.322,9.4,6.787,9.031c0.465-0.365,1.043-0.598,1.48-0.998
	C7.154,7.917,6.463,8.621,5.904,9.058C6.469,7.085,7.191,5.272,8.07,3.612c0.158,0.062,0.23,0.15,0.455,0.144
	c0.107-0.074,0.154-0.2,0.207-0.32c0.082,0.037,0.396-0.071,0.396-0.069c0,0,0.029,0.253,0.057,0.37
	C9.074,3.861,9.002,4.05,9.014,4.297C8.525,4.727,8.455,6.029,9.07,6.378C9.207,6.337,9.285,6.232,9.412,6.18
	c0.188,0.458,0.82,0.261,0.854-0.2c0.117,0.081,0.207,0.193,0.428,0.171C11.029,5.65,10.865,5.041,10.551,4.639z M4.988,9.971
	C4.73,10.49,4.439,8.185,4.386,7.654c-0.02-0.152-0.077-2.906-0.077-3.265c0.08-0.842,0.047-2.129,0.496-2.216
	c0.706,0.025,0.156,0.699,0.386,1.182c-0.173,0.446-0.57,1.048-0.57,1.629C4.566,5.921,5.255,5.688,5.246,5.708
	C5.188,6.212,4.988,9.4,4.988,9.971z M6.56,6.237C6.078,7.322,5.624,8.658,5.304,9.97c0.017-0.629-0.052-1.285-0.021-1.967
	c0.038-0.822-0.047-1.602,0.222-2.34C5.721,5.866,6.053,6.114,6.275,6.15c0.194,0.03,0.18-0.473,0.428-0.398
	C6.754,5.916,6.625,6.091,6.56,6.237z M7.072,5.096C7.037,4.229,6.271,4.091,5.932,3.527c0.171-0.852,0.529-2.399,1.154-2.795
	c0.111-0.07,0.33,0.108,0.377,0.223c0.084,0.205-0.16,0.41,0.027,0.693C7.393,1.814,7.441,1.996,7.387,2.244
	C7.338,2.468,7.188,2.639,7.16,2.842C7.098,3.265,7.275,3.819,7.615,3.869C7.533,4.262,7.232,4.685,7.072,5.096z"/>
</svg>
